
<svg xmlns="http://www.w3.org/2000/svg" width="560" height="960" viewBox="0 0 560 960">
<style>
  text{font-family:SimHei,'Microsoft YaHei',sans-serif;fill:#000;}
  .th{font-size:13px;font-weight:bold;}
  .ts{font-size:11px;}
  .an{font-size:10px;fill:#444;}
  .sc{font-size:14px;font-weight:bold;}
  .round{fill:#fff;stroke:#000;stroke-width:1.8;}
  .sharp{fill:#fff;stroke:#000;stroke-width:1.8;}
  .dia{fill:#fff;stroke:#000;stroke-width:1.8;}
  .arr{stroke:#000;stroke-width:1.5;fill:none;marker-end:url(#ah);}
  .ln{stroke:#000;stroke-width:1.5;fill:none;}
</style>
<defs>
  <marker id="ah" viewBox="0 0 10 10" refX="9" refY="5" markerWidth="6" markerHeight="6" orient="auto-start-reverse">
    <path d="M1 2L9 5L1 8" fill="none" stroke="#000" stroke-width="1.8" stroke-linejoin="round" stroke-linecap="round"/>
  </marker>
</defs>
<rect width="560" height="960" fill="#fff"/>

<text x="280" y="24" text-anchor="middle" class="sc">图K  5.4  主程序设计流程图</text>

<!-- 开始 -->
<rect x="205" y="36" width="150" height="40" rx="20" class="round"/>
<text x="280" y="61" text-anchor="middle" class="th">程序启动（main.py）</text>

<line x1="280" y1="76" x2="280" y2="100" class="arr"/>

<!-- 导入torch -->
<rect x="90" y="100" width="380" height="36" class="sharp"/>
<text x="280" y="114" text-anchor="middle" class="th">try: import torch</text>
<text x="280" y="128" text-anchor="middle" class="ts">（MODNet 依赖）</text>

<line x1="280" y1="136" x2="280" y2="156" class="arr"/>

<!-- 判断torch -->
<polygon points="280,156 390,180 280,204 170,180" class="dia"/>
<text x="280" y="176" text-anchor="middle" class="th">导入成功？</text>

<line x1="390" y1="180" x2="450" y2="180" class="ln"/>
<text x="418" y="174" text-anchor="middle" class="an">是</text>
<line x1="280" y1="204" x2="280" y2="220" class="ln"/>
<text x="290" y="216" class="an">否→pass</text>
<line x1="450" y1="180" x2="450" y2="228" class="ln"/>
<line x1="280" y1="220" x2="450" y2="220" class="ln"/>
<line x1="365" y1="220" x2="365" y2="240" class="arr"/>

<!-- 导入mediapipe -->
<rect x="90" y="240" width="380" height="36" class="sharp"/>
<text x="280" y="254" text-anchor="middle" class="th">try: import mediapipe</text>
<text x="280" y="268" text-anchor="middle" class="ts">（MediaPipe 依赖）</text>

<line x1="280" y1="276" x2="280" y2="296" class="arr"/>

<!-- 判断mediapipe -->
<polygon points="280,296 390,320 280,344 170,320" class="dia"/>
<text x="280" y="316" text-anchor="middle" class="th">导入成功？</text>

<line x1="390" y1="320" x2="450" y2="320" class="ln"/>
<text x="418" y="314" text-anchor="middle" class="an">是</text>
<line x1="280" y1="344" x2="280" y2="360" class="ln"/>
<text x="290" y="356" class="an">否→pass</text>
<line x1="450" y1="320" x2="450" y2="368" class="ln"/>
<line x1="280" y1="360" x2="450" y2="360" class="ln"/>
<line x1="365" y1="360" x2="365" y2="380" class="arr"/>

<!-- 导入onnxruntime -->
<rect x="90" y="380" width="380" height="36" class="sharp"/>
<text x="280" y="394" text-anchor="middle" class="th">try: import onnxruntime</text>
<text x="280" y="408" text-anchor="middle" class="ts">（RVM 依赖）</text>

<line x1="280" y1="416" x2="280" y2="436" class="arr"/>

<!-- 判断onnxruntime -->
<polygon points="280,436 390,460 280,484 170,460" class="dia"/>
<text x="280" y="456" text-anchor="middle" class="th">导入成功？</text>

<line x1="390" y1="460" x2="450" y2="460" class="ln"/>
<text x="418" y="454" text-anchor="middle" class="an">是</text>
<line x1="280" y1="484" x2="280" y2="500" class="ln"/>
<text x="290" y="496" class="an">否→pass</text>
<line x1="450" y1="460" x2="450" y2="508" class="ln"/>
<line x1="280" y1="500" x2="450" y2="500" class="ln"/>
<line x1="365" y1="500" x2="365" y2="520" class="arr"/>

<!-- 读取配置 -->
<rect x="90" y="520" width="380" height="36" class="sharp"/>
<text x="280" y="534" text-anchor="middle" class="th">读取算法配置</text>
<text x="280" y="548" text-anchor="middle" class="ts">from config.constants import ALGORITHM_ID（整数 0-7）</text>

<line x1="280" y1="556" x2="280" y2="576" class="arr"/>

<!-- 创建主窗口 -->
<rect x="90" y="576" width="380" height="36" class="sharp"/>
<text x="280" y="590" text-anchor="middle" class="th">创建 tk.Tk() 根窗口</text>
<text x="280" y="604" text-anchor="middle" class="ts">设置标题与窗口属性</text>

<line x1="280" y1="612" x2="280" y2="632" class="arr"/>

<!-- 实例化GUI -->
<rect x="90" y="632" width="380" height="36" class="sharp"/>
<text x="280" y="646" text-anchor="middle" class="th">实例化 BackgroundChangerGUI</text>
<text x="280" y="660" text-anchor="middle" class="ts">传入根窗口与 algorithm_id 参数</text>

<line x1="280" y1="668" x2="280" y2="688" class="arr"/>

<!-- 界面构建+线程启动 -->
<rect x="70" y="688" width="420" height="36" class="sharp"/>
<text x="280" y="702" text-anchor="middle" class="th">界面构建 · 加载背景图片 · 启动视频采集线程</text>
<text x="280" y="716" text-anchor="middle" class="ts">load_backgrounds() · VideoThread.start()</text>

<line x1="280" y1="724" x2="280" y2="744" class="arr"/>

<!-- mainloop -->
<rect x="70" y="744" width="420" height="36" class="sharp"/>
<text x="280" y="758" text-anchor="middle" class="th">root.mainloop() 进入事件循环</text>
<text x="280" y="772" text-anchor="middle" class="ts">持续响应用户操作 · after(33) 定时刷新预览</text>

<line x1="280" y1="780" x2="280" y2="800" class="arr"/>

<!-- 判断：窗口关闭 -->
<polygon points="280,800 390,824 280,848 170,824" class="dia"/>
<text x="280" y="820" text-anchor="middle" class="th">用户关闭窗口？</text>

<!-- 否→回环 -->
<line x1="170" y1="824" x2="60" y2="824" class="ln"/>
<line x1="60" y1="824" x2="60" y2="762" class="ln"/>
<line x1="60" y1="762" x2="70" y2="762" class="arr"/>
<text x="36" y="800" text-anchor="middle" class="an" style="writing-mode:tb">继续运行</text>

<!-- 是→下 -->
<line x1="280" y1="848" x2="280" y2="868" class="arr"/>
<text x="290" y="862" class="an">是</text>

<!-- 资源释放 -->
<rect x="90" y="868" width="380" height="36" class="sharp"/>
<text x="280" y="882" text-anchor="middle" class="th">视频线程停止 · 摄像头资源释放</text>
<text x="280" y="896" text-anchor="middle" class="ts">VideoThread.stop() · cap.release()</text>

<line x1="280" y1="904" x2="280" y2="920" class="arr"/>

<!-- 结束 -->
<rect x="205" y="920" width="150" height="36" rx="18" class="round"/>
<text x="280" y="943" text-anchor="middle" class="th">程序退出</text>
</svg>
