<svg xmlns="http://www.w3.org/2000/svg" width="738" height="450" viewBox="0 0 738 450">
<rect width="100%" height="100%" fill="#ffffff"/>
<text x="24" y="34" font-size="21" font-family="Arial, sans-serif" font-weight="700">直播压力场景综合分</text>
<text x="207.0" y="62" text-anchor="middle" font-size="12" font-family="Arial, sans-serif" fill="#273142">空背景预热后移动</text>
<text x="349.0" y="62" text-anchor="middle" font-size="12" font-family="Arial, sans-serif" fill="#273142">开播时人已在画面中</text>
<text x="491.0" y="62" text-anchor="middle" font-size="12" font-family="Arial, sans-serif" fill="#273142">人物停住后再移动</text>
<text x="633.0" y="62" text-anchor="middle" font-size="12" font-family="Arial, sans-serif" fill="#273142">抖动光照压缩</text>
<text x="124" y="105" text-anchor="end" font-size="14" font-family="Arial, sans-serif" fill="#273142">GrabCut</text>
<rect x="140" y="83" width="134" height="32" rx="5" fill="#d49a30"/>
<text x="207.0" y="105" text-anchor="middle" font-size="14" font-family="Arial, sans-serif" fill="#ffffff">56.3</text>
<rect x="282" y="83" width="134" height="32" rx="5" fill="#2f8f5b"/>
<text x="349.0" y="105" text-anchor="middle" font-size="14" font-family="Arial, sans-serif" fill="#ffffff">82.1</text>
<rect x="424" y="83" width="134" height="32" rx="5" fill="#2f8f5b"/>
<text x="491.0" y="105" text-anchor="middle" font-size="14" font-family="Arial, sans-serif" fill="#ffffff">81.8</text>
<rect x="566" y="83" width="134" height="32" rx="5" fill="#2f8f5b"/>
<text x="633.0" y="105" text-anchor="middle" font-size="14" font-family="Arial, sans-serif" fill="#ffffff">81.4</text>
<text x="124" y="147" text-anchor="end" font-size="14" font-family="Arial, sans-serif" fill="#273142">KNN</text>
<rect x="140" y="125" width="134" height="32" rx="5" fill="#2f8f5b"/>
<text x="207.0" y="147" text-anchor="middle" font-size="14" font-family="Arial, sans-serif" fill="#ffffff">98.3</text>
<rect x="282" y="125" width="134" height="32" rx="5" fill="#2f8f5b"/>
<text x="349.0" y="147" text-anchor="middle" font-size="14" font-family="Arial, sans-serif" fill="#ffffff">89.8</text>
<rect x="424" y="125" width="134" height="32" rx="5" fill="#2f8f5b"/>
<text x="491.0" y="147" text-anchor="middle" font-size="14" font-family="Arial, sans-serif" fill="#ffffff">98.4</text>
<rect x="566" y="125" width="134" height="32" rx="5" fill="#8aa640"/>
<text x="633.0" y="147" text-anchor="middle" font-size="14" font-family="Arial, sans-serif" fill="#ffffff">75.3</text>
<text x="124" y="189" text-anchor="end" font-size="14" font-family="Arial, sans-serif" fill="#273142">LOBSTER</text>
<rect x="140" y="167" width="134" height="32" rx="5" fill="#2f8f5b"/>
<text x="207.0" y="189" text-anchor="middle" font-size="14" font-family="Arial, sans-serif" fill="#ffffff">97.4</text>
<rect x="282" y="167" width="134" height="32" rx="5" fill="#2f8f5b"/>
<text x="349.0" y="189" text-anchor="middle" font-size="14" font-family="Arial, sans-serif" fill="#ffffff">92.7</text>
<rect x="424" y="167" width="134" height="32" rx="5" fill="#2f8f5b"/>
<text x="491.0" y="189" text-anchor="middle" font-size="14" font-family="Arial, sans-serif" fill="#ffffff">97.7</text>
<rect x="566" y="167" width="134" height="32" rx="5" fill="#8aa640"/>
<text x="633.0" y="189" text-anchor="middle" font-size="14" font-family="Arial, sans-serif" fill="#ffffff">67.6</text>
<text x="124" y="231" text-anchor="end" font-size="14" font-family="Arial, sans-serif" fill="#273142">MODNet</text>
<rect x="140" y="209" width="134" height="32" rx="5" fill="#2f8f5b"/>
<text x="207.0" y="231" text-anchor="middle" font-size="14" font-family="Arial, sans-serif" fill="#ffffff">98.7</text>
<rect x="282" y="209" width="134" height="32" rx="5" fill="#2f8f5b"/>
<text x="349.0" y="231" text-anchor="middle" font-size="14" font-family="Arial, sans-serif" fill="#ffffff">98.7</text>
<rect x="424" y="209" width="134" height="32" rx="5" fill="#2f8f5b"/>
<text x="491.0" y="231" text-anchor="middle" font-size="14" font-family="Arial, sans-serif" fill="#ffffff">98.7</text>
<rect x="566" y="209" width="134" height="32" rx="5" fill="#8aa640"/>
<text x="633.0" y="231" text-anchor="middle" font-size="14" font-family="Arial, sans-serif" fill="#ffffff">73.4</text>
<text x="124" y="273" text-anchor="end" font-size="14" font-family="Arial, sans-serif" fill="#273142">MOG2</text>
<rect x="140" y="251" width="134" height="32" rx="5" fill="#2f8f5b"/>
<text x="207.0" y="273" text-anchor="middle" font-size="14" font-family="Arial, sans-serif" fill="#ffffff">97.8</text>
<rect x="282" y="251" width="134" height="32" rx="5" fill="#2f8f5b"/>
<text x="349.0" y="273" text-anchor="middle" font-size="14" font-family="Arial, sans-serif" fill="#ffffff">85.5</text>
<rect x="424" y="251" width="134" height="32" rx="5" fill="#2f8f5b"/>
<text x="491.0" y="273" text-anchor="middle" font-size="14" font-family="Arial, sans-serif" fill="#ffffff">97.9</text>
<rect x="566" y="251" width="134" height="32" rx="5" fill="#2f8f5b"/>
<text x="633.0" y="273" text-anchor="middle" font-size="14" font-family="Arial, sans-serif" fill="#ffffff">80.5</text>
<text x="124" y="315" text-anchor="end" font-size="14" font-family="Arial, sans-serif" fill="#273142">MediaPipe</text>
<rect x="140" y="293" width="134" height="32" rx="5" fill="#8aa640"/>
<text x="207.0" y="315" text-anchor="middle" font-size="14" font-family="Arial, sans-serif" fill="#ffffff">70.1</text>
<rect x="282" y="293" width="134" height="32" rx="5" fill="#8aa640"/>
<text x="349.0" y="315" text-anchor="middle" font-size="14" font-family="Arial, sans-serif" fill="#ffffff">70.2</text>
<rect x="424" y="293" width="134" height="32" rx="5" fill="#8aa640"/>
<text x="491.0" y="315" text-anchor="middle" font-size="14" font-family="Arial, sans-serif" fill="#ffffff">70.2</text>
<rect x="566" y="293" width="134" height="32" rx="5" fill="#8aa640"/>
<text x="633.0" y="315" text-anchor="middle" font-size="14" font-family="Arial, sans-serif" fill="#ffffff">69.5</text>
<text x="124" y="357" text-anchor="end" font-size="14" font-family="Arial, sans-serif" fill="#273142">RVM</text>
<rect x="140" y="335" width="134" height="32" rx="5" fill="#2f8f5b"/>
<text x="207.0" y="357" text-anchor="middle" font-size="14" font-family="Arial, sans-serif" fill="#ffffff">96.5</text>
<rect x="282" y="335" width="134" height="32" rx="5" fill="#2f8f5b"/>
<text x="349.0" y="357" text-anchor="middle" font-size="14" font-family="Arial, sans-serif" fill="#ffffff">96.2</text>
<rect x="424" y="335" width="134" height="32" rx="5" fill="#2f8f5b"/>
<text x="491.0" y="357" text-anchor="middle" font-size="14" font-family="Arial, sans-serif" fill="#ffffff">95.7</text>
<rect x="566" y="335" width="134" height="32" rx="5" fill="#2f8f5b"/>
<text x="633.0" y="357" text-anchor="middle" font-size="14" font-family="Arial, sans-serif" fill="#ffffff">96.6</text>
<text x="124" y="399" text-anchor="end" font-size="14" font-family="Arial, sans-serif" fill="#273142">SuBSENSE</text>
<rect x="140" y="377" width="134" height="32" rx="5" fill="#2f8f5b"/>
<text x="207.0" y="399" text-anchor="middle" font-size="14" font-family="Arial, sans-serif" fill="#ffffff">89.3</text>
<rect x="282" y="377" width="134" height="32" rx="5" fill="#8aa640"/>
<text x="349.0" y="399" text-anchor="middle" font-size="14" font-family="Arial, sans-serif" fill="#ffffff">72.8</text>
<rect x="424" y="377" width="134" height="32" rx="5" fill="#2f8f5b"/>
<text x="491.0" y="399" text-anchor="middle" font-size="14" font-family="Arial, sans-serif" fill="#ffffff">88.9</text>
<rect x="566" y="377" width="134" height="32" rx="5" fill="#2f8f5b"/>
<text x="633.0" y="399" text-anchor="middle" font-size="14" font-family="Arial, sans-serif" fill="#ffffff">88.0</text>
</svg>