<svg xmlns="http://www.w3.org/2000/svg" width="860" height="442" viewBox="0 0 860 442">
<rect width="100%" height="100%" fill="#ffffff"/>
<text x="24" y="34" font-size="21" font-family="Arial, sans-serif" font-weight="700">平均单帧耗时（ms，越低越好）</text>
<line x1="150" y1="50" x2="818" y2="50" stroke="#d7dde5"/>
<text x="136" y="74" text-anchor="end" font-size="14" font-family="Arial, sans-serif" fill="#273142">MOG2</text>
<rect x="150" y="58" width="8.5" height="23" rx="4" fill="#2f6fbb"/>
<text x="166.5" y="74" font-size="13" font-family="Arial, sans-serif" fill="#273142">3.99 ms</text>
<text x="136" y="118" text-anchor="end" font-size="14" font-family="Arial, sans-serif" fill="#273142">KNN</text>
<rect x="150" y="102" width="10.7" height="23" rx="4" fill="#2f6fbb"/>
<text x="168.7" y="118" font-size="13" font-family="Arial, sans-serif" fill="#273142">5.06 ms</text>
<text x="136" y="162" text-anchor="end" font-size="14" font-family="Arial, sans-serif" fill="#273142">RVM</text>
<rect x="150" y="146" width="11.5" height="23" rx="4" fill="#2f6fbb"/>
<text x="169.5" y="162" font-size="13" font-family="Arial, sans-serif" fill="#273142">5.42 ms</text>
<text x="136" y="206" text-anchor="end" font-size="14" font-family="Arial, sans-serif" fill="#273142">GrabCut</text>
<rect x="150" y="190" width="17.6" height="23" rx="4" fill="#2f6fbb"/>
<text x="175.6" y="206" font-size="13" font-family="Arial, sans-serif" fill="#273142">8.28 ms</text>
<text x="136" y="250" text-anchor="end" font-size="14" font-family="Arial, sans-serif" fill="#273142">LOBSTER</text>
<rect x="150" y="234" width="88.4" height="23" rx="4" fill="#2f6fbb"/>
<text x="246.4" y="250" font-size="13" font-family="Arial, sans-serif" fill="#273142">41.65 ms</text>
<text x="136" y="294" text-anchor="end" font-size="14" font-family="Arial, sans-serif" fill="#273142">SuBSENSE</text>
<rect x="150" y="278" width="93.0" height="23" rx="4" fill="#2f6fbb"/>
<text x="251.0" y="294" font-size="13" font-family="Arial, sans-serif" fill="#273142">43.80 ms</text>
<text x="136" y="338" text-anchor="end" font-size="14" font-family="Arial, sans-serif" fill="#273142">MediaPipe</text>
<rect x="150" y="322" width="223.5" height="23" rx="4" fill="#2f6fbb"/>
<text x="381.5" y="338" font-size="13" font-family="Arial, sans-serif" fill="#273142">105.28 ms</text>
<text x="136" y="382" text-anchor="end" font-size="14" font-family="Arial, sans-serif" fill="#273142">MODNet</text>
<rect x="150" y="366" width="668.0" height="23" rx="4" fill="#2f6fbb"/>
<text x="734.0" y="382" font-size="13" font-family="Arial, sans-serif" fill="#273142">314.70 ms</text>
</svg>