<svg xmlns="http://www.w3.org/2000/svg" width="860" height="458" viewBox="0 0 860 458">
<rect width="100%" height="100%" fill="#ffffff"/>
<text x="24" y="34" font-size="21" font-family="Arial, sans-serif" font-weight="700">平均单帧耗时（ms，越低越好）</text>
<line x1="150" y1="50" x2="820" y2="50" stroke="#d7dde5"/>
<text x="136" y="75" text-anchor="end" font-size="14" font-family="Arial, sans-serif" fill="#273142">MODNet</text>
<rect x="150" y="58" width="670.0" height="24" rx="4" fill="#2f6fbb"/>
<text x="740.0" y="75" font-size="13" font-family="Arial, sans-serif" fill="#273142">242.12 ms</text>
<text x="136" y="121" text-anchor="end" font-size="14" font-family="Arial, sans-serif" fill="#273142">MediaPipe</text>
<rect x="150" y="104" width="295.7" height="24" rx="4" fill="#2f6fbb"/>
<text x="453.7" y="121" font-size="13" font-family="Arial, sans-serif" fill="#273142">106.86 ms</text>
<text x="136" y="167" text-anchor="end" font-size="14" font-family="Arial, sans-serif" fill="#273142">RVM</text>
<rect x="150" y="150" width="17.4" height="24" rx="4" fill="#2f6fbb"/>
<text x="175.4" y="167" font-size="13" font-family="Arial, sans-serif" fill="#273142">6.30 ms</text>
<text x="136" y="213" text-anchor="end" font-size="14" font-family="Arial, sans-serif" fill="#273142">MOG2</text>
<rect x="150" y="196" width="11.7" height="24" rx="4" fill="#2f6fbb"/>
<text x="169.7" y="213" font-size="13" font-family="Arial, sans-serif" fill="#273142">4.21 ms</text>
<text x="136" y="259" text-anchor="end" font-size="14" font-family="Arial, sans-serif" fill="#273142">KNN</text>
<rect x="150" y="242" width="13.8" height="24" rx="4" fill="#2f6fbb"/>
<text x="171.8" y="259" font-size="13" font-family="Arial, sans-serif" fill="#273142">5.00 ms</text>
<text x="136" y="305" text-anchor="end" font-size="14" font-family="Arial, sans-serif" fill="#273142">GrabCut</text>
<rect x="150" y="288" width="32.2" height="24" rx="4" fill="#2f6fbb"/>
<text x="190.2" y="305" font-size="13" font-family="Arial, sans-serif" fill="#273142">11.62 ms</text>
<text x="136" y="351" text-anchor="end" font-size="14" font-family="Arial, sans-serif" fill="#273142">LOBSTER</text>
<rect x="150" y="334" width="153.2" height="24" rx="4" fill="#2f6fbb"/>
<text x="311.2" y="351" font-size="13" font-family="Arial, sans-serif" fill="#273142">55.36 ms</text>
<text x="136" y="397" text-anchor="end" font-size="14" font-family="Arial, sans-serif" fill="#273142">SuBSENSE</text>
<rect x="150" y="380" width="161.0" height="24" rx="4" fill="#2f6fbb"/>
<text x="319.0" y="397" font-size="13" font-family="Arial, sans-serif" fill="#273142">58.17 ms</text>
</svg>