<svg xmlns="http://www.w3.org/2000/svg" width="860" height="458" viewBox="0 0 860 458">
<rect width="100%" height="100%" fill="#ffffff"/>
<text x="24" y="34" font-size="21" font-family="Arial, sans-serif" font-weight="700">前景保持误差（MAE，越低越好）</text>
<line x1="150" y1="50" x2="820" y2="50" stroke="#d7dde5"/>
<text x="136" y="75" text-anchor="end" font-size="14" font-family="Arial, sans-serif" fill="#273142">MODNet</text>
<rect x="150" y="58" width="13.3" height="24" rx="4" fill="#7a5bb5"/>
<text x="171.3" y="75" font-size="13" font-family="Arial, sans-serif" fill="#273142">2.62</text>
<text x="136" y="121" text-anchor="end" font-size="14" font-family="Arial, sans-serif" fill="#273142">MediaPipe</text>
<rect x="150" y="104" width="670.0" height="24" rx="4" fill="#7a5bb5"/>
<text x="740.0" y="121" font-size="13" font-family="Arial, sans-serif" fill="#273142">131.99</text>
<text x="136" y="167" text-anchor="end" font-size="14" font-family="Arial, sans-serif" fill="#273142">RVM</text>
<rect x="150" y="150" width="83.9" height="24" rx="4" fill="#7a5bb5"/>
<text x="241.9" y="167" font-size="13" font-family="Arial, sans-serif" fill="#273142">16.54</text>
<text x="136" y="213" text-anchor="end" font-size="14" font-family="Arial, sans-serif" fill="#273142">MOG2</text>
<rect x="150" y="196" width="9.4" height="24" rx="4" fill="#7a5bb5"/>
<text x="167.4" y="213" font-size="13" font-family="Arial, sans-serif" fill="#273142">1.86</text>
<text x="136" y="259" text-anchor="end" font-size="14" font-family="Arial, sans-serif" fill="#273142">KNN</text>
<rect x="150" y="242" width="9.4" height="24" rx="4" fill="#7a5bb5"/>
<text x="167.4" y="259" font-size="13" font-family="Arial, sans-serif" fill="#273142">1.86</text>
<text x="136" y="305" text-anchor="end" font-size="14" font-family="Arial, sans-serif" fill="#273142">GrabCut</text>
<rect x="150" y="288" width="119.1" height="24" rx="4" fill="#7a5bb5"/>
<text x="277.1" y="305" font-size="13" font-family="Arial, sans-serif" fill="#273142">23.46</text>
<text x="136" y="351" text-anchor="end" font-size="14" font-family="Arial, sans-serif" fill="#273142">LOBSTER</text>
<rect x="150" y="334" width="2.0" height="24" rx="4" fill="#7a5bb5"/>
<text x="160.0" y="351" font-size="13" font-family="Arial, sans-serif" fill="#273142">0.22</text>
<text x="136" y="397" text-anchor="end" font-size="14" font-family="Arial, sans-serif" fill="#273142">SuBSENSE</text>
<rect x="150" y="380" width="93.4" height="24" rx="4" fill="#7a5bb5"/>
<text x="251.4" y="397" font-size="13" font-family="Arial, sans-serif" fill="#273142">18.39</text>
</svg>